<svg width="211" height="211" viewBox="0 0 211 211" fill="none" xmlns="http://www.w3.org/2000/svg">
<path d="M7.41039 111.016L5.50905 111.049L5.35268 102.091L7.25403 102.058L7.31232 105.397L16.3184 105.24L16.3582 107.52L7.3521 107.677L7.41039 111.016Z" fill="#802E2E"/>
<path d="M11.7696 99.5502L16.4854 99.9176L16.3092 102.18L5.43303 101.333L5.60431 99.134L9.76252 99.458L9.76997 99.3624C9.30281 99.1408 8.94893 98.814 8.70831 98.3821C8.46415 97.9499 8.36621 97.424 8.41447 96.8044C8.4586 96.238 8.62099 95.7537 8.90164 95.3517C9.17903 94.9459 9.55695 94.6441 10.0354 94.4463C10.5106 94.2447 11.0667 94.1704 11.7037 94.2236L16.8975 94.6282L16.7212 96.8906L11.9311 96.5174C11.4286 96.4747 11.0274 96.5717 10.7276 96.8083C10.4281 97.0414 10.2604 97.3881 10.2245 97.8484C10.2005 98.1564 10.2448 98.4341 10.3573 98.6815C10.4701 98.9254 10.6469 99.1244 10.8878 99.2785C11.1254 99.4288 11.4194 99.5194 11.7696 99.5502Z" fill="#802E2E"/>
<path d="M17.9308 89.399C17.7859 90.228 17.4934 90.9123 17.0531 91.4518C16.6098 91.9872 16.0505 92.3618 15.3751 92.5754C14.6963 92.7885 13.9318 92.8208 13.0817 92.6723C12.2527 92.5275 11.5532 92.2394 10.9832 91.8082C10.4133 91.377 10.0044 90.8387 9.75663 90.1934C9.50948 89.5446 9.45496 88.8249 9.59307 88.0344C9.68596 87.5026 9.85813 87.0226 10.1096 86.5943C10.3582 86.1619 10.6821 85.8039 11.0813 85.5204C11.4811 85.2333 11.9549 85.0385 12.5028 84.9359C13.0471 84.8328 13.6621 84.8411 14.3477 84.9608L14.9617 85.0681L13.7728 91.8738L12.3875 91.6318L13.2088 86.9302C12.887 86.874 12.5897 86.8942 12.3169 86.9907C12.044 87.0872 11.816 87.2475 11.6327 87.4714C11.4465 87.6912 11.3249 87.9638 11.2681 88.2891C11.2088 88.6284 11.235 88.943 11.3466 89.2329C11.4553 89.5186 11.628 89.7579 11.8647 89.9507C12.0979 90.1428 12.3733 90.2684 12.691 90.3275L14.0081 90.5576C14.4069 90.6273 14.7643 90.614 15.0803 90.5178C15.3969 90.4181 15.6578 90.2456 15.8629 90.0002C16.0679 89.7549 16.2032 89.445 16.2686 89.0707C16.312 88.8224 16.3167 88.5889 16.2828 88.3703C16.2489 88.1516 16.1748 87.9567 16.0605 87.7853C15.9463 87.6139 15.7944 87.472 15.605 87.3596L16.1026 85.3161C16.581 85.5078 16.9772 85.7987 17.2911 86.1888C17.6022 86.5748 17.8163 87.0412 17.9335 87.588C18.0478 88.1306 18.0469 88.7343 17.9308 89.399Z" fill="#802E2E"/>
<path d="M20.7865 77.2688L10.5896 73.3917L11.3961 71.2706L15.2298 72.7283L15.2545 72.6636C15.084 72.4924 14.926 72.2785 14.7805 72.0218C14.6329 71.7605 14.542 71.46 14.5078 71.1203C14.4715 70.776 14.5348 70.3897 14.6976 69.9615C14.9096 69.4039 15.2513 68.9449 15.7226 68.5846C16.1906 68.2231 16.7704 68.0123 17.4618 67.9523C18.15 67.891 18.9322 68.027 19.8085 68.3602C20.6616 68.6846 21.3295 69.0962 21.8122 69.5951C22.2929 70.0894 22.5947 70.6296 22.7175 71.2158C22.8383 71.7974 22.7883 72.3787 22.5674 72.9595C22.4109 73.3711 22.2097 73.6954 21.9638 73.9325C21.7192 74.1662 21.4593 74.3352 21.1841 74.4395C20.9055 74.5426 20.6418 74.6018 20.3927 74.6173L20.3568 74.7119L21.5816 75.1776L20.7865 77.2688ZM17.7521 73.7386C18.2068 73.9116 18.6274 73.9993 19.014 74.0019C19.4005 74.0045 19.7338 73.9223 20.0139 73.7552C20.2906 73.5869 20.494 73.3318 20.624 72.9899C20.7552 72.6447 20.7717 72.3167 20.6734 72.0057C20.5717 71.6935 20.375 71.4117 20.0831 71.1601C19.7892 70.904 19.4198 70.6914 18.975 70.5222C18.5336 70.3544 18.1219 70.2681 17.7399 70.2635C17.358 70.2588 17.027 70.34 16.7469 70.5071C16.4668 70.6741 16.2605 70.9319 16.128 71.2804C15.9967 71.6256 15.977 71.9524 16.0687 72.2608C16.1616 72.5659 16.3517 72.8453 16.639 73.0989C16.9263 73.3525 17.2973 73.5657 17.7521 73.7386Z" fill="#802E2E"/>
<path d="M25.9593 65.4201C25.5867 66.1747 25.1132 66.7489 24.5387 67.1425C23.9626 67.5314 23.3205 67.7332 22.6122 67.7479C21.9008 67.761 21.1582 67.5766 20.3844 67.1947C19.6298 66.8221 19.0397 66.3487 18.6144 65.7744C18.189 65.2001 17.9483 64.5684 17.8924 63.8794C17.8381 63.1873 17.9885 62.4814 18.3438 61.7617C18.5827 61.2777 18.8831 60.8657 19.2451 60.5255C19.6054 60.1807 20.017 59.9284 20.48 59.7688C20.9445 59.6061 21.454 59.5527 22.0085 59.6086C22.5599 59.6629 23.1476 59.8442 23.7717 60.1523L24.3306 60.4281L21.2725 66.6232L20.0115 66.0007L22.1241 61.721C21.8312 61.5764 21.5402 61.512 21.2512 61.5277C20.9623 61.5435 20.6983 61.633 20.4593 61.7962C20.2187 61.9547 20.0254 62.182 19.8792 62.4781C19.7267 62.787 19.6632 63.0962 19.6886 63.4057C19.7124 63.7105 19.8107 63.9888 19.9835 64.2404C20.1531 64.4905 20.382 64.6886 20.6702 64.8348L21.8691 65.4266C22.2321 65.6058 22.5787 65.6938 22.9091 65.6905C23.2409 65.6841 23.5398 65.592 23.8057 65.4144C24.0716 65.2367 24.2887 64.9776 24.4569 64.6368C24.5685 64.4108 24.6388 64.1881 24.6679 63.9687C24.6969 63.7494 24.6808 63.5415 24.6194 63.3449C24.5581 63.1482 24.4523 62.9693 24.3022 62.8081L25.3554 60.9875C25.7604 61.3062 26.0586 61.697 26.25 62.1597C26.4397 62.6177 26.5137 63.1256 26.4721 63.6832C26.4289 64.2361 26.2579 64.8151 25.9593 65.4201Z" fill="#802E2E"/>
<path d="M26.7632 52.0468L25.7795 53.881C25.6098 53.8179 25.4337 53.7988 25.2513 53.8238C25.0658 53.8469 24.8864 53.9176 24.7131 54.0358C24.5386 54.1492 24.3823 54.3177 24.2441 54.5412C24.0592 54.8402 23.9667 55.1317 23.9666 55.4155C23.9634 55.6974 24.066 55.9029 24.2745 56.0317C24.4406 56.1344 24.6221 56.1548 24.8191 56.0929C25.016 56.0309 25.2491 55.8598 25.5184 55.5796L26.5509 54.4769C27.1081 53.8863 27.6435 53.52 28.157 53.3783C28.6705 53.2365 29.178 53.3206 29.6794 53.6306C30.1354 53.9126 30.4526 54.2944 30.6307 54.7762C30.8107 55.2548 30.8535 55.7865 30.7593 56.3712C30.6638 56.951 30.4294 57.5429 30.0559 58.147C29.4863 59.0682 28.8407 59.6836 28.1191 59.9932C27.3963 60.2978 26.6738 60.2915 25.9514 59.9743L27.0254 58.0143C27.3418 58.1306 27.6421 58.1243 27.9265 57.9953C28.2078 57.8644 28.4549 57.6268 28.6678 57.2825C28.8769 56.9442 28.98 56.6322 28.9771 56.3465C28.9731 56.056 28.8678 55.8447 28.6613 55.7128C28.4842 55.6076 28.295 55.5929 28.0936 55.6687C27.8892 55.7428 27.6634 55.9121 27.4162 56.1768L26.431 57.2335C25.8749 57.8291 25.3265 58.1893 24.7858 58.3143C24.247 58.4362 23.7178 58.3366 23.1983 58.0154C22.7513 57.739 22.4409 57.3801 22.2671 56.9387C22.0951 56.4942 22.0579 55.9973 22.1554 55.448C22.2547 54.8957 22.4883 54.322 22.8562 53.727C23.3996 52.848 24.013 52.2712 24.6964 51.9965C25.3817 51.7187 26.0706 51.7355 26.7632 52.0468Z" fill="#802E2E"/>
<path d="M29.3223 44.7314L30.6803 45.7616L27.7026 49.6872L26.3445 48.657L29.3223 44.7314ZM25.4588 46.5812L26.8302 44.7733L32.9074 49.3831C33.0744 49.5097 33.2238 49.583 33.3558 49.6029C33.485 49.6206 33.6023 49.5982 33.7078 49.5356C33.8154 49.4701 33.9153 49.3765 34.0076 49.2549C34.072 49.17 34.1293 49.0797 34.1795 48.9841C34.2269 48.8864 34.2636 48.8117 34.2894 48.7599L35.8504 49.4961C35.81 49.6081 35.746 49.7601 35.6583 49.9521C35.5734 50.1462 35.4462 50.3639 35.2765 50.6052C34.963 51.0538 34.6153 51.3917 34.2334 51.6191C33.8536 51.8436 33.455 51.9401 33.0375 51.9087C32.6201 51.8773 32.1988 51.6982 31.7737 51.3713L25.4588 46.5812Z" fill="#802E2E"/>
<path d="M42.2161 31.3946L43.3547 32.6632L39.5967 36.0361L38.4581 34.7676L42.2161 31.3946ZM44.7834 40.0845L38.9234 33.5555C38.5273 33.1141 38.2847 32.671 38.1955 32.2261C38.109 31.7789 38.1512 31.3474 38.322 30.9316C38.4928 30.5159 38.7698 30.136 39.153 29.7921C39.412 29.5596 39.6663 29.3671 39.916 29.2147C40.1683 29.0598 40.3615 28.9508 40.4957 28.8876L41.333 30.4266C41.2479 30.4647 41.1482 30.5184 41.0338 30.5877C40.9221 30.6546 40.816 30.7331 40.7156 30.8232C40.4671 31.0462 40.3462 31.2597 40.3528 31.4637C40.357 31.6651 40.4516 31.8689 40.6366 32.0751L46.4682 38.5723L44.7834 40.0845Z" fill="#802E2E"/>
<path d="M52.0506 34.2318C51.6308 34.5419 51.2028 34.7455 50.7667 34.8425C50.3285 34.9366 49.9072 34.9101 49.5027 34.763C49.099 34.6109 48.7367 34.3178 48.416 33.8837C48.1459 33.5181 47.9862 33.1614 47.9369 32.8138C47.8876 32.4661 47.9227 32.1311 48.0422 31.8088C48.1617 31.4865 48.3401 31.1782 48.5773 30.8837C48.8174 30.5871 49.0886 30.3029 49.391 30.0309C49.7442 29.7082 50.0253 29.4432 50.2342 29.2359C50.441 29.0257 50.5708 28.8459 50.6238 28.6964C50.6767 28.5469 50.6515 28.4022 50.5481 28.2623L50.5291 28.2366C50.3286 27.9652 50.0878 27.8186 49.8067 27.7967C49.5285 27.7726 49.2337 27.8756 48.9224 28.1056C48.5939 28.3482 48.3864 28.6141 48.2998 28.9033C48.211 29.1896 48.2154 29.4645 48.313 29.728L46.5236 30.8379C46.3139 30.3747 46.2271 29.9046 46.2632 29.4276C46.2972 28.9477 46.4547 28.4826 46.7357 28.0322C47.0174 27.5769 47.4211 27.1551 47.9466 26.7668C48.3122 26.4967 48.6938 26.2811 49.0913 26.1199C49.4916 25.9566 49.8882 25.8689 50.2811 25.8569C50.6768 25.8427 51.0548 25.9211 51.415 26.092C51.7732 26.2601 52.0968 26.5398 52.3859 26.9311L55.6649 31.3698L53.934 32.6484L53.2598 31.7358L53.2084 31.7738C53.2546 32.0576 53.2472 32.3434 53.1862 32.6313C53.1231 32.9164 52.9999 33.1949 52.8169 33.4671C52.6317 33.7363 52.3763 33.9912 52.0506 34.2318ZM51.6428 32.586C51.9113 32.3877 52.1093 32.1597 52.2369 31.9021C52.3624 31.6416 52.4162 31.3767 52.3982 31.1074C52.3803 30.8381 52.2859 30.5878 52.115 30.3564L51.5991 29.6581C51.5694 29.7374 51.5161 29.8297 51.4394 29.935C51.3634 30.0353 51.2734 30.1436 51.1696 30.2601C51.0637 30.3737 50.9567 30.4858 50.8486 30.5965C50.7385 30.7044 50.6387 30.8024 50.5493 30.8905C50.3582 31.0802 50.2081 31.2684 50.0988 31.4551C49.9895 31.6418 49.9338 31.8264 49.9318 32.009C49.9276 32.1886 49.9888 32.3641 50.1154 32.5355C50.299 32.784 50.5293 32.9075 50.8063 32.9059C51.0841 32.8994 51.3629 32.7928 51.6428 32.586Z" fill="#802E2E"/>
<path d="M59.9129 21.967L58.198 23.1465C58.0761 23.0126 57.9284 22.9149 57.7548 22.8535C57.5793 22.7891 57.3875 22.7697 57.1792 22.7954C56.9722 22.8163 56.756 22.8944 56.5308 23.0297C56.2294 23.2108 56.0137 23.4274 55.8835 23.6796C55.7515 23.9288 55.7486 24.1584 55.8748 24.3684C55.9754 24.5358 56.1274 24.6371 56.3308 24.6723C56.5343 24.7075 56.8199 24.6623 57.1876 24.5366L58.6106 24.0296C59.3765 23.7599 60.0202 23.6798 60.5416 23.789C61.063 23.8983 61.4755 24.2056 61.7791 24.7109C62.0553 25.1706 62.1622 25.6553 62.0998 26.165C62.0404 26.673 61.8349 27.1652 61.4831 27.6417C61.1326 28.1133 60.653 28.532 60.0442 28.8978C59.1158 29.4556 58.26 29.7068 57.4768 29.6512C56.6948 29.5908 56.0554 29.2541 55.5587 28.6412L57.4114 27.3912C57.6393 27.6396 57.9092 27.7715 58.221 27.7872C58.531 27.7998 58.8595 27.7018 59.2066 27.4933C59.5475 27.2885 59.7821 27.0584 59.9104 26.8032C60.04 26.543 60.0432 26.307 59.92 26.0952C59.8109 25.9204 59.6495 25.8207 59.4357 25.7958C59.2201 25.768 58.9418 25.815 58.6008 25.937L57.2409 26.4248C56.4737 26.6994 55.8212 26.7683 55.2833 26.6316C54.7485 26.4931 54.3238 26.162 54.0093 25.6385C53.7386 25.188 53.6271 24.7267 53.675 24.2547C53.7258 23.7809 53.9204 23.3222 54.2587 22.8786C54.6001 22.4332 55.0706 22.0303 55.6703 21.67C56.5561 21.1378 57.3656 20.9061 58.0989 20.9751C58.8352 21.0422 59.4399 21.3729 59.9129 21.967Z" fill="#802E2E"/>
<path d="M65.5395 16.6374L66.2746 18.1753L61.829 20.3001L61.094 18.7621L65.5395 16.6374ZM61.2579 16.5112L63.3053 15.5326L66.5946 22.4148C66.685 22.6038 66.7842 22.7374 66.8924 22.8156C66.9991 22.8906 67.1137 22.9244 67.2361 22.917C67.3617 22.9081 67.4935 22.8708 67.6312 22.8049C67.7273 22.759 67.8196 22.705 67.9081 22.6431C67.995 22.5779 68.0618 22.5283 68.1085 22.4942L69.1587 23.8638C69.0714 23.9448 68.9449 24.0506 68.7789 24.181C68.6146 24.3147 68.4017 24.4499 68.1404 24.5866C67.6561 24.8417 67.1922 24.9827 66.7486 25.0098C66.3081 25.0353 65.9096 24.9384 65.5529 24.7193C65.1963 24.5001 64.9039 24.1478 64.6759 23.6625L61.2579 16.5112Z" fill="#802E2E"/>
<path d="M83.1113 10.6915L83.542 12.3407L78.6562 13.6167L78.2255 11.9674L83.1113 10.6915ZM81.4113 19.5917L79.1945 11.1033C79.0446 10.5295 79.032 10.0245 79.1566 9.58818C79.2847 9.15101 79.5199 8.78679 79.8622 8.49552C80.2046 8.20425 80.6249 7.99356 81.1231 7.86345C81.4598 7.77552 81.774 7.72098 82.0658 7.69983C82.361 7.67779 82.5827 7.66944 82.7309 7.67478L82.7699 9.4263C82.6768 9.42125 82.5636 9.4233 82.4302 9.43244C82.3002 9.4407 82.1699 9.46187 82.0394 9.49597C81.7164 9.58032 81.5111 9.71468 81.4235 9.89906C81.3349 10.08 81.3256 10.3045 81.3956 10.5725L83.6017 19.0196L81.4113 19.5917Z" fill="#802E2E"/>
<path d="M91.1601 17.6268C90.3432 17.7589 89.6088 17.6995 88.9567 17.4488C88.3076 17.194 87.7714 16.7806 87.348 16.2088C86.9241 15.6334 86.6452 14.932 86.5115 14.1047C86.3766 13.2704 86.42 12.5151 86.6417 11.839C86.8628 11.1594 87.2415 10.5981 87.7778 10.1553C88.3171 9.70841 88.9952 9.41895 89.812 9.28692C90.6288 9.15489 91.3618 9.21627 92.0109 9.47107C92.6629 9.7218 93.201 10.1349 93.6249 10.7102C94.0483 11.2821 94.3274 11.9852 94.4623 12.8196C94.596 13.6469 94.5523 14.4004 94.3312 15.08C94.1096 15.7561 93.7291 16.3177 93.1898 16.7645C92.6534 17.2074 91.9769 17.4948 91.1601 17.6268ZM90.8901 15.8898C91.2617 15.8298 91.5549 15.6745 91.7698 15.4239C91.9842 15.1698 92.1247 14.8485 92.1914 14.46C92.2616 14.071 92.2587 13.6416 92.1828 13.1718C92.1069 12.7021 91.9743 12.2936 91.7851 11.9465C91.5994 11.5988 91.3648 11.3381 91.0813 11.1645C90.7979 10.9909 90.4704 10.9341 90.0988 10.9942C89.7237 11.0548 89.4254 11.2128 89.2041 11.468C88.9862 11.7226 88.8422 12.0445 88.772 12.4335C88.7053 12.822 88.7099 13.2511 88.7858 13.7209C88.8618 14.1906 88.9926 14.5994 89.1783 14.9471C89.3675 15.2942 89.6056 15.5543 89.8926 15.7273C90.1825 15.8963 90.515 15.9505 90.8901 15.8898Z" fill="#802E2E"/>
<path d="M99.5609 16.6767C98.7352 16.7305 98.0098 16.6016 97.3845 16.29C96.7625 15.9747 96.268 15.5122 95.9009 14.9027C95.5336 14.2896 95.3226 13.5649 95.2682 12.7286C95.2132 11.8853 95.3282 11.1376 95.6131 10.4856C95.8978 9.83001 96.3282 9.30732 96.9042 8.91749C97.4835 8.52388 98.186 8.30019 99.0117 8.2464C99.8374 8.19261 100.561 8.32339 101.183 8.63874C101.808 8.95031 102.305 9.41264 102.672 10.0257C103.039 10.6352 103.25 11.3617 103.305 12.2051C103.36 13.0414 103.244 13.7873 102.96 14.4428C102.675 15.0948 102.243 15.6176 101.663 16.0113C101.087 16.4011 100.387 16.6229 99.5609 16.6767ZM99.4572 14.9219C99.8329 14.8974 100.14 14.7707 100.377 14.5417C100.615 14.3091 100.785 14.0027 100.889 13.6223C100.995 13.2416 101.033 12.8139 101.002 12.3391C100.972 11.8642 100.878 11.445 100.723 11.0815C100.571 10.7177 100.363 10.4359 100.097 10.2362C99.8311 10.0364 99.5105 9.94875 99.1349 9.97322C98.7557 9.99792 98.4438 10.1268 98.1992 10.3598C97.9582 10.5926 97.7842 10.8993 97.6773 11.2799C97.574 11.6603 97.5378 12.0879 97.5687 12.5628C97.5996 13.0376 97.691 13.4569 97.8428 13.8207C97.9982 14.1842 98.2105 14.4658 98.4797 14.6653C98.7522 14.8611 99.0781 14.9466 99.4572 14.9219Z" fill="#802E2E"/>
<path d="M107.165 16.4772C106.544 16.4584 105.986 16.2817 105.492 15.9471C105.001 15.609 104.618 15.1231 104.342 14.4895C104.07 13.8525 103.947 13.0778 103.975 12.1656C104.003 11.2285 104.178 10.454 104.498 9.84191C104.818 9.22629 105.234 8.77162 105.743 8.47791C106.257 8.18075 106.814 8.04121 107.413 8.0593C107.871 8.07311 108.251 8.16271 108.551 8.32809C108.855 8.49003 109.098 8.6892 109.279 8.92559C109.464 9.15854 109.603 9.38655 109.696 9.60962L109.765 9.61171L109.888 5.51201L112.151 5.58024L111.822 16.4844L109.586 16.4169L109.626 15.1072L109.53 15.1043C109.416 15.3282 109.259 15.5491 109.057 15.7668C108.859 15.9811 108.603 16.1564 108.29 16.2926C107.98 16.4289 107.605 16.4904 107.165 16.4772ZM107.938 14.6939C108.304 14.7049 108.616 14.6149 108.874 14.4237C109.135 14.2291 109.339 13.9528 109.485 13.5948C109.634 13.2369 109.716 12.8148 109.731 12.3285C109.745 11.8423 109.691 11.4178 109.567 11.0553C109.443 10.6927 109.256 10.4099 109.006 10.207C108.756 10.0041 108.449 9.8971 108.083 9.88607C107.71 9.87483 107.393 9.96652 107.132 10.1611C106.87 10.3558 106.668 10.6303 106.526 10.9849C106.384 11.3394 106.306 11.7527 106.291 12.2248C106.277 12.7005 106.33 13.1231 106.45 13.4926C106.574 13.8587 106.759 14.1485 107.005 14.362C107.254 14.572 107.565 14.6827 107.938 14.6939Z" fill="#802E2E"/>
<path d="M124.181 18.3453L125.971 10.3617L128.185 10.8581L126.395 18.8417L124.181 18.3453ZM127.314 9.5819C126.985 9.5081 126.727 9.33564 126.54 9.06451C126.358 8.79069 126.301 8.49958 126.37 8.19119C126.438 7.88626 126.613 7.65066 126.894 7.48441C127.18 7.31547 127.487 7.2679 127.816 7.3417C128.145 7.4155 128.401 7.58931 128.583 7.86313C128.77 8.13426 128.829 8.42229 128.761 8.72722C128.692 9.03561 128.515 9.27428 128.229 9.44322C127.948 9.60948 127.643 9.6557 127.314 9.5819Z" fill="#802E2E"/>
<path d="M133.022 15.7696L131.553 20.2659L129.396 19.5613L131.937 11.7839L133.993 12.4555L133.544 13.8276L133.635 13.8574C133.955 13.4613 134.361 13.1978 134.852 13.0668C135.344 12.9325 135.879 12.9596 136.456 13.1481C136.996 13.3246 137.428 13.5966 137.753 13.9641C138.077 14.3316 138.279 14.7711 138.359 15.2828C138.439 15.791 138.381 16.3472 138.184 16.9514L136.566 21.9034L134.409 21.1988L135.901 16.6316C136.06 16.1568 136.06 15.7458 135.9 15.3986C135.742 15.048 135.447 14.8022 135.015 14.661C134.725 14.5662 134.448 14.5449 134.184 14.597C133.924 14.6502 133.692 14.7762 133.489 14.9751C133.29 15.1717 133.135 15.4365 133.022 15.7696Z" fill="#802E2E"/>
<path d="M146.026 26.1271L151.315 16.5858L153.332 17.704L148.965 25.5821L153.056 27.8495L152.134 29.5127L146.026 26.1271Z" fill="#802E2E"/>
<path d="M155.597 32.0752C154.915 31.6071 154.424 31.0574 154.125 30.4259C153.831 29.7936 153.729 29.1244 153.817 28.4183C153.907 27.7094 154.189 27.0093 154.663 26.3183C155.142 25.6214 155.694 25.1047 156.321 24.7684C156.95 24.429 157.612 24.2842 158.305 24.3339C159.004 24.3826 159.694 24.641 160.377 25.1091C161.059 25.5772 161.547 26.1274 161.841 26.7598C162.14 27.3912 162.244 28.0614 162.154 28.7704C162.066 29.4765 161.783 30.1779 161.304 30.8748C160.83 31.5659 160.279 32.0811 159.65 32.4204C159.023 32.7568 158.36 32.9006 157.661 32.8519C156.967 32.8022 156.279 32.5434 155.597 32.0752ZM156.6 30.6318C156.911 30.8448 157.23 30.9347 157.559 30.9017C157.889 30.8657 158.213 30.7302 158.529 30.495C158.848 30.2619 159.142 29.9492 159.412 29.5568C159.681 29.1644 159.867 28.7773 159.969 28.3955C160.075 28.0157 160.085 27.6652 160 27.344C159.914 27.0227 159.716 26.7556 159.406 26.5426C159.093 26.3277 158.768 26.2361 158.432 26.2681C158.098 26.3021 157.772 26.4356 157.453 26.6687C157.136 26.9039 156.843 27.2176 156.574 27.61C156.305 28.0024 156.118 28.3885 156.012 28.7682C155.91 29.15 155.902 29.5026 155.991 29.8258C156.084 30.1482 156.287 30.4169 156.6 30.6318Z" fill="#802E2E"/>
<path d="M169.255 35.1415L167.58 33.9068C167.666 33.7478 167.71 33.5762 167.712 33.3921C167.715 33.2052 167.671 33.0176 167.578 32.8292C167.491 32.6403 167.346 32.4616 167.145 32.293C166.875 32.0675 166.6 31.9344 166.319 31.8939C166.04 31.8507 165.822 31.923 165.665 32.111C165.54 32.2608 165.494 32.4376 165.527 32.6413C165.56 32.8451 165.696 33.1002 165.936 33.4066L166.88 34.5855C167.385 35.2211 167.672 35.8032 167.739 36.3316C167.806 36.8601 167.651 37.3504 167.273 37.8026C166.929 38.2139 166.505 38.4734 166.003 38.5812C165.504 38.6912 164.971 38.658 164.406 38.4815C163.846 38.3045 163.293 37.9882 162.749 37.5325C161.918 36.8376 161.4 36.111 161.197 35.3527C160.998 34.5939 161.107 33.8796 161.524 33.2097L163.311 34.5517C163.151 34.8484 163.115 35.1466 163.202 35.4464C163.291 35.7434 163.491 36.0218 163.802 36.2815C164.107 36.5367 164.401 36.6832 164.684 36.721C164.972 36.7583 165.196 36.6842 165.356 36.4985C165.486 36.3382 165.527 36.153 165.481 35.9429C165.437 35.73 165.301 35.4824 165.074 35.2001L164.169 34.0745C163.658 33.4393 163.38 32.8452 163.333 32.2923C163.289 31.7416 163.463 31.232 163.855 30.7634C164.192 30.3603 164.591 30.1041 165.053 29.9949C165.517 29.888 166.015 29.9219 166.544 30.0965C167.077 30.2734 167.612 30.5863 168.148 31.0351C168.941 31.6981 169.425 32.3874 169.599 33.1029C169.777 33.8207 169.662 34.5002 169.255 35.1415Z" fill="#802E2E"/>
<path d="M181.579 45.7032C181.885 45.3987 182.028 45.046 182.008 44.6452C181.988 44.2444 181.804 43.8293 181.454 43.3999C181.216 43.1081 180.974 42.8954 180.727 42.7618C180.484 42.6259 180.247 42.5626 180.016 42.5719C179.788 42.584 179.583 42.6641 179.401 42.8121C179.245 42.93 179.139 43.0694 179.082 43.2302C179.027 43.3937 179.009 43.5711 179.028 43.7623C179.049 43.9512 179.095 44.1515 179.167 44.3633C179.242 44.5728 179.333 44.7866 179.442 45.0047L179.88 45.9125C180.098 46.3487 180.264 46.777 180.378 47.1975C180.491 47.6179 180.54 48.0229 180.523 48.4124C180.506 48.8019 180.411 49.1697 180.24 49.5156C180.07 49.8644 179.811 50.1837 179.461 50.4736C178.941 50.8927 178.385 51.1262 177.792 51.1743C177.204 51.223 176.605 51.0875 175.997 50.7681C175.393 50.4491 174.811 49.9456 174.25 49.2574C173.694 48.5747 173.314 47.8949 173.11 47.2179C172.909 46.5437 172.898 45.8977 173.077 45.2798C173.261 44.6625 173.651 44.0991 174.248 43.5895L175.658 45.3195C175.391 45.5699 175.22 45.844 175.147 46.142C175.078 46.4404 175.095 46.75 175.196 47.0708C175.302 47.3921 175.481 47.7068 175.732 48.0151C175.979 48.3179 176.237 48.5449 176.507 48.6961C176.779 48.85 177.044 48.925 177.302 48.921C177.56 48.9169 177.79 48.8319 177.994 48.6659C178.184 48.5111 178.298 48.3245 178.335 48.1062C178.375 47.8907 178.353 47.6385 178.268 47.3498C178.186 47.0638 178.057 46.7364 177.88 46.3675L177.361 45.2583C176.953 44.404 176.765 43.6201 176.798 42.9066C176.83 42.193 177.16 41.583 177.787 41.0765C178.297 40.6564 178.855 40.4281 179.462 40.3915C180.071 40.3577 180.681 40.4955 181.29 40.8049C181.9 41.1144 182.456 41.5774 182.958 42.194C183.47 42.8216 183.809 43.4569 183.976 44.0999C184.145 44.7456 184.144 45.3551 183.975 45.9284C183.805 46.5018 183.472 46.9979 182.975 47.4167L181.579 45.7032Z" fill="#802E2E"/>
<path d="M178.886 55.4896C178.596 55.0554 178.413 54.6183 178.337 54.1781C178.264 53.7359 178.31 53.3163 178.476 52.9193C178.647 52.5232 178.957 52.1753 179.406 51.8756C179.784 51.6232 180.148 51.4807 180.498 51.448C180.847 51.4152 181.18 51.4662 181.497 51.601C181.813 51.7357 182.112 51.9285 182.395 52.1795C182.68 52.4334 182.951 52.7179 183.208 53.0329C183.514 53.401 183.765 53.6944 183.962 53.9129C184.162 54.1295 184.336 54.2677 184.483 54.3277C184.629 54.3877 184.775 54.3694 184.92 54.2728L184.946 54.255C185.227 54.0677 185.385 53.8342 185.42 53.5544C185.458 53.2777 185.369 52.9783 185.154 52.6564C184.927 52.3167 184.671 52.0968 184.387 51.9965C184.105 51.8942 183.83 51.8856 183.562 51.9704L182.539 50.1303C183.011 49.9429 183.485 49.8785 183.96 49.9373C184.437 49.9941 184.895 50.1736 185.331 50.4757C185.773 50.7787 186.175 51.202 186.537 51.7454C186.79 52.1235 186.987 52.5148 187.129 52.9195C187.273 53.3272 187.342 53.7275 187.335 54.1205C187.331 54.5164 187.234 54.8903 187.046 55.242C186.862 55.5918 186.567 55.9017 186.162 56.1718L181.572 59.2359L180.378 57.4461L181.321 56.8162L181.286 56.763C181 56.7957 180.715 56.7747 180.43 56.7C180.149 56.6234 179.876 56.4872 179.613 56.2913C179.353 56.0935 179.11 55.8263 178.886 55.4896ZM180.549 55.1605C180.734 55.4382 180.953 55.6468 181.204 55.7865C181.458 55.9242 181.72 55.9906 181.99 55.9855C182.26 55.9804 182.514 55.8979 182.754 55.7382L183.476 55.2561C183.398 55.2227 183.308 55.1652 183.207 55.0835C183.11 55.0028 183.006 54.9078 182.895 54.7985C182.786 54.6873 182.679 54.5751 182.574 54.4619C182.471 54.3467 182.378 54.2424 182.295 54.1489C182.114 53.9491 181.933 53.7901 181.752 53.6721C181.571 53.554 181.389 53.4896 181.207 53.4789C181.028 53.4662 180.849 53.519 180.672 53.6373C180.415 53.8088 180.281 54.033 180.269 54.3098C180.262 54.5875 180.356 54.8711 180.549 55.1605Z" fill="#802E2E"/>
<path d="M187.176 59.6192L183.01 61.8597L181.935 59.8612L189.141 55.9857L190.165 57.8904L188.894 58.5741L188.939 58.6586C189.444 58.5927 189.92 58.6818 190.365 58.9259C190.814 59.1683 191.183 59.5569 191.47 60.0917C191.739 60.5921 191.864 61.0873 191.846 61.5772C191.827 62.0671 191.67 62.5246 191.374 62.9497C191.082 63.3731 190.656 63.7353 190.096 64.0364L185.508 66.504L184.433 64.5055L188.664 62.2297C189.107 61.9957 189.391 61.698 189.515 61.3369C189.642 60.974 189.598 60.5924 189.383 60.1921C189.238 59.9231 189.053 59.7165 188.826 59.5724C188.601 59.4313 188.346 59.3626 188.062 59.3663C187.782 59.3715 187.487 59.4558 187.176 59.6192Z" fill="#802E2E"/>
<path d="M195.818 69.8004L194.247 70.4614L192.336 65.9198L193.907 65.2588L195.818 69.8004ZM196.148 65.5296L197.028 67.6212L189.997 70.5794C189.804 70.6606 189.666 70.7534 189.583 70.8578C189.503 70.9608 189.463 71.0736 189.465 71.1962C189.468 71.3221 189.499 71.4555 189.558 71.5962C189.599 71.6944 189.649 71.7892 189.707 71.8805C189.768 71.9704 189.814 72.0395 189.846 72.0878L188.428 73.0716C188.351 72.9806 188.251 72.8491 188.129 72.6772C188.003 72.5066 187.878 72.2876 187.754 72.02C187.523 71.5242 187.404 71.0541 187.398 70.6097C187.393 70.1685 187.509 69.775 187.745 69.4292C187.981 69.0834 188.347 68.8081 188.842 68.6034L196.148 65.5296Z" fill="#802E2E"/>
<path d="M190.126 78.8187C189.879 78.029 189.833 77.2936 189.989 76.6125C190.149 75.9337 190.481 75.3441 190.987 74.8436C191.496 74.3421 192.151 73.9663 192.951 73.7162C193.757 73.464 194.511 73.3994 195.212 73.5226C195.916 73.6447 196.526 73.9397 197.04 74.4076C197.559 74.8778 197.942 75.5077 198.189 76.2975C198.436 77.0872 198.48 77.8214 198.32 78.5002C198.164 79.1813 197.832 79.7726 197.323 80.2741C196.817 80.7746 196.161 81.1509 195.354 81.4031C194.554 81.6532 193.802 81.7172 193.098 81.5951C192.397 81.472 191.787 81.1753 191.268 80.7051C190.754 80.2372 190.373 79.6084 190.126 78.8187ZM191.807 78.3043C191.919 78.6635 192.115 78.9317 192.393 79.1087C192.675 79.2847 193.013 79.3781 193.407 79.3888C193.802 79.403 194.227 79.339 194.681 79.197C195.135 79.055 195.521 78.8657 195.837 78.629C196.155 78.3957 196.38 78.1264 196.511 77.8211C196.643 77.5158 196.652 77.1835 196.54 76.8243C196.427 76.4616 196.228 76.1889 195.944 76.0061C195.661 75.8267 195.322 75.73 194.927 75.7159C194.533 75.7051 194.108 75.7708 193.654 75.9128C193.2 76.0548 192.814 76.2424 192.496 76.4757C192.18 76.7124 191.956 76.9851 191.826 77.2938C191.7 77.6048 191.694 77.9416 191.807 78.3043Z" fill="#802E2E"/>
<path d="M198.967 89.6718L198.413 87.6655C198.579 87.5941 198.72 87.4864 198.835 87.3424C198.953 87.1977 199.034 87.0227 199.078 86.8175C199.126 86.615 199.123 86.3852 199.068 86.1281C198.996 85.7841 198.862 85.5094 198.666 85.3039C198.474 85.0976 198.258 85.0198 198.018 85.0704C197.827 85.1107 197.681 85.2212 197.582 85.4019C197.482 85.5827 197.431 85.8673 197.43 86.256L197.443 87.7665C197.448 88.5785 197.313 89.213 197.039 89.67C196.765 90.127 196.34 90.4163 195.763 90.5379C195.238 90.6486 194.745 90.5911 194.284 90.3653C193.823 90.1431 193.426 89.7879 193.09 89.2997C192.759 88.8142 192.52 88.224 192.374 87.5291C192.15 86.4693 192.193 85.5784 192.502 84.8564C192.814 84.1372 193.342 83.6431 194.084 83.3742L194.659 85.5338C194.35 85.668 194.137 85.8799 194.02 86.1694C193.906 86.4582 193.892 86.8007 193.975 87.1968C194.057 87.586 194.198 87.883 194.397 88.0877C194.601 88.2952 194.823 88.3755 195.063 88.3284C195.264 88.2824 195.411 88.1625 195.504 87.9686C195.601 87.7739 195.648 87.4955 195.644 87.1334L195.628 85.6888C195.619 84.874 195.768 84.2348 196.073 83.7712C196.378 83.3112 196.83 83.0181 197.428 82.892C197.942 82.7836 198.414 82.8291 198.845 83.0287C199.276 83.2317 199.646 83.5657 199.954 84.0305C200.264 84.4988 200.49 85.0751 200.635 85.7597C200.848 86.7708 200.802 87.6116 200.497 88.282C200.193 88.9559 199.683 89.4191 198.967 89.6718Z" fill="#802E2E"/>
<path d="M193.688 95.8346C193.648 95.4853 193.738 95.1714 193.956 94.8929C194.179 94.6176 194.465 94.4601 194.814 94.4206C195.16 94.3815 195.471 94.4715 195.745 94.6905C196.021 94.9131 196.178 95.1991 196.218 95.5484C196.256 95.8872 196.166 96.1975 195.948 96.4795C195.73 96.7615 195.448 96.9221 195.102 96.9612C194.869 96.9876 194.649 96.9517 194.441 96.8537C194.237 96.7588 194.066 96.6227 193.928 96.4453C193.794 96.2676 193.714 96.064 193.688 95.8346Z" fill="#802E2E"/>
<path d="M203.354 108.976L205.25 109.124L204.554 118.056L202.658 117.909L202.917 114.579L193.937 113.879L194.114 111.606L203.094 112.306L203.354 108.976Z" fill="#802E2E"/>
<path d="M197.924 119.976L193.265 119.162L193.655 116.926L204.402 118.804L204.022 120.976L199.914 120.258L199.897 120.353C200.341 120.618 200.662 120.977 200.861 121.43C201.063 121.883 201.11 122.416 201.003 123.028C200.906 123.588 200.698 124.054 200.38 124.428C200.066 124.805 199.661 125.07 199.166 125.221C198.673 125.377 198.113 125.398 197.484 125.285L192.352 124.388L192.742 122.153L197.475 122.98C197.971 123.07 198.38 123.011 198.701 122.804C199.021 122.601 199.221 122.272 199.301 121.817C199.354 121.512 199.336 121.232 199.248 120.975C199.159 120.721 199.001 120.506 198.776 120.33C198.554 120.158 198.27 120.04 197.924 119.976Z" fill="#802E2E"/>
<path d="M190.826 129.495C191.049 128.684 191.406 128.03 191.895 127.535C192.387 127.044 192.98 126.725 193.672 126.576C194.368 126.429 195.132 126.469 195.965 126.698C196.776 126.921 197.445 127.274 197.971 127.757C198.498 128.241 198.854 128.816 199.039 129.481C199.223 130.151 199.209 130.872 198.997 131.646C198.854 132.167 198.636 132.628 198.345 133.031C198.057 133.438 197.7 133.763 197.276 134.007C196.851 134.255 196.361 134.404 195.805 134.454C195.254 134.505 194.642 134.438 193.971 134.254L193.37 134.089L195.201 127.427L196.557 127.8L195.292 132.402C195.607 132.488 195.905 132.497 196.186 132.426C196.467 132.356 196.709 132.218 196.913 132.013C197.119 131.812 197.266 131.552 197.353 131.234C197.445 130.901 197.448 130.586 197.365 130.287C197.284 129.992 197.135 129.737 196.917 129.523C196.703 129.309 196.441 129.158 196.131 129.069L194.841 128.715C194.451 128.608 194.094 128.587 193.77 128.653C193.446 128.722 193.169 128.869 192.942 129.093C192.714 129.318 192.55 129.614 192.45 129.98C192.383 130.223 192.356 130.455 192.369 130.676C192.382 130.897 192.437 131.098 192.535 131.28C192.632 131.461 192.77 131.617 192.948 131.747L192.258 133.734C191.8 133.497 191.433 133.17 191.158 132.752C190.885 132.338 190.716 131.853 190.651 131.298C190.589 130.747 190.648 130.146 190.826 129.495Z" fill="#802E2E"/>
<path d="M186.83 141.299L196.613 146.128L195.608 148.163L191.93 146.347L191.9 146.409C192.053 146.596 192.19 146.824 192.31 147.093C192.433 147.368 192.494 147.675 192.496 148.017C192.5 148.363 192.4 148.741 192.197 149.152C191.933 149.687 191.549 150.112 191.046 150.425C190.546 150.741 189.948 150.896 189.254 150.89C188.563 150.885 187.798 150.675 186.957 150.26C186.139 149.856 185.513 149.383 185.08 148.841C184.648 148.303 184.399 147.736 184.333 147.141C184.268 146.551 184.373 145.977 184.648 145.42C184.843 145.025 185.074 144.721 185.341 144.509C185.607 144.299 185.882 144.156 186.166 144.078C186.453 144.002 186.721 143.968 186.97 143.976L187.015 143.885L185.84 143.305L186.83 141.299ZM189.515 145.102C189.079 144.886 188.669 144.759 188.284 144.72C187.9 144.68 187.56 144.731 187.265 144.87C186.974 145.012 186.747 145.246 186.585 145.574C186.422 145.905 186.374 146.23 186.443 146.549C186.514 146.87 186.683 147.169 186.95 147.447C187.218 147.73 187.566 147.977 187.992 148.187C188.416 148.396 188.817 148.521 189.197 148.562C189.577 148.603 189.914 148.554 190.209 148.414C190.504 148.275 190.733 148.038 190.899 147.703C191.062 147.372 191.113 147.049 191.051 146.733C190.987 146.42 190.825 146.124 190.563 145.845C190.301 145.565 189.952 145.317 189.515 145.102Z" fill="#802E2E"/>
<path d="M180.555 152.603C180.997 151.887 181.523 151.36 182.133 151.023C182.743 150.691 183.401 150.551 184.108 150.603C184.817 150.658 185.539 150.912 186.273 151.366C186.989 151.809 187.531 152.336 187.9 152.948C188.269 153.56 188.448 154.212 188.439 154.903C188.427 155.597 188.21 156.286 187.788 156.968C187.504 157.427 187.166 157.809 186.773 158.113C186.382 158.422 185.948 158.634 185.472 158.749C184.994 158.867 184.482 158.872 183.935 158.763C183.392 158.657 182.824 158.42 182.232 158.054L181.702 157.727L185.335 151.85L186.531 152.59L184.021 156.649C184.299 156.821 184.582 156.913 184.871 156.925C185.161 156.937 185.432 156.873 185.685 156.733C185.94 156.598 186.154 156.39 186.328 156.109C186.509 155.816 186.601 155.514 186.606 155.204C186.611 154.898 186.539 154.612 186.391 154.345C186.246 154.08 186.037 153.861 185.764 153.688L184.627 152.985C184.283 152.772 183.946 152.651 183.617 152.623C183.286 152.598 182.98 152.661 182.698 152.813C182.416 152.964 182.176 153.202 181.976 153.525C181.843 153.74 181.752 153.955 181.702 154.17C181.653 154.386 181.649 154.594 181.691 154.796C181.734 154.997 181.822 155.185 181.956 155.36L180.735 157.072C180.362 156.717 180.102 156.299 179.955 155.821C179.81 155.347 179.785 154.834 179.879 154.283C179.975 153.737 180.2 153.176 180.555 152.603Z" fill="#802E2E"/>
<path d="M178.483 165.839L179.637 164.106C179.8 164.185 179.973 164.221 180.157 164.214C180.344 164.208 180.529 164.155 180.713 164.054C180.898 163.957 181.069 163.805 181.228 163.595C181.44 163.315 181.56 163.034 181.587 162.751C181.617 162.471 181.535 162.257 181.339 162.109C181.184 161.991 181.005 161.953 180.803 161.996C180.601 162.039 180.353 162.187 180.058 162.44L178.926 163.44C178.315 163.975 177.747 164.289 177.222 164.381C176.698 164.473 176.2 164.341 175.731 163.985C175.304 163.661 175.024 163.251 174.893 162.754C174.759 162.261 174.767 161.727 174.916 161.154C175.066 160.586 175.356 160.019 175.785 159.453C176.44 158.59 177.141 158.039 177.889 157.8C178.637 157.565 179.356 157.64 180.045 158.024L178.789 159.873C178.486 159.728 178.186 159.705 177.891 159.807C177.598 159.91 177.33 160.123 177.085 160.446C176.845 160.763 176.712 161.064 176.688 161.348C176.664 161.638 176.749 161.858 176.942 162.009C177.108 162.131 177.295 162.163 177.503 162.107C177.714 162.053 177.955 161.906 178.226 161.666L179.307 160.707C179.917 160.167 180.497 159.861 181.047 159.788C181.595 159.718 182.113 159.867 182.599 160.236C183.018 160.554 183.293 160.941 183.424 161.397C183.553 161.855 183.543 162.354 183.393 162.891C183.242 163.431 182.955 163.98 182.532 164.538C181.908 165.361 181.242 165.877 180.536 166.085C179.827 166.297 179.143 166.215 178.483 165.839Z" fill="#802E2E"/>
<path d="M175.24 172.878L173.986 171.723L177.324 168.099L178.578 169.253L175.24 172.878ZM179.262 171.404L177.725 173.073L172.114 167.906C171.959 167.765 171.818 167.677 171.688 167.645C171.561 167.615 171.442 167.626 171.331 167.679C171.218 167.734 171.11 167.817 171.006 167.93C170.934 168.008 170.868 168.092 170.809 168.183C170.753 168.275 170.709 168.346 170.679 168.395L169.195 167.514C169.246 167.407 169.324 167.261 169.429 167.079C169.532 166.893 169.68 166.689 169.871 166.465C170.226 166.048 170.604 165.745 171.006 165.555C171.406 165.367 171.812 165.309 172.224 165.38C172.637 165.451 173.039 165.669 173.431 166.035L179.262 171.404Z" fill="#802E2E"/>
<path d="M161.137 184.929L160.124 183.558L164.186 180.557L165.199 181.928L161.137 184.929ZM159.408 176.034L164.62 183.091C164.973 183.568 165.172 184.032 165.219 184.483C165.262 184.937 165.179 185.362 164.97 185.76C164.76 186.157 164.448 186.509 164.034 186.815C163.754 187.022 163.483 187.189 163.22 187.317C162.954 187.448 162.751 187.538 162.612 187.588L161.924 185.976C162.013 185.946 162.117 185.902 162.238 185.844C162.355 185.788 162.468 185.72 162.577 185.64C162.845 185.442 162.986 185.241 162.999 185.037C163.014 184.836 162.939 184.624 162.774 184.401L157.587 177.379L159.408 176.034Z" fill="#802E2E"/>
<path d="M151.617 181.169C152.064 180.901 152.51 180.739 152.953 180.684C153.398 180.631 153.815 180.698 154.204 180.883C154.591 181.073 154.924 181.399 155.202 181.861C155.436 182.251 155.561 182.621 155.577 182.972C155.593 183.323 155.527 183.653 155.377 183.962C155.227 184.272 155.02 184.562 154.756 184.833C154.489 185.105 154.192 185.362 153.865 185.604C153.483 185.892 153.178 186.129 152.95 186.315C152.724 186.505 152.578 186.672 152.511 186.815C152.444 186.959 152.456 187.106 152.545 187.255L152.562 187.282C152.735 187.571 152.961 187.74 153.239 187.789C153.514 187.839 153.817 187.765 154.149 187.565C154.499 187.355 154.731 187.11 154.844 186.83C154.96 186.554 154.982 186.28 154.91 186.008L156.796 185.073C156.961 185.554 157.003 186.031 156.921 186.502C156.842 186.976 156.641 187.425 156.318 187.846C155.995 188.273 155.553 188.654 154.993 188.991C154.603 189.225 154.203 189.403 153.792 189.526C153.378 189.65 152.975 189.7 152.582 189.675C152.187 189.651 151.818 189.537 151.476 189.333C151.135 189.131 150.84 188.822 150.589 188.405L147.747 183.675L149.592 182.567L150.176 183.539L150.231 183.506C150.212 183.219 150.246 182.936 150.334 182.655C150.424 182.377 150.573 182.111 150.781 181.858C150.991 181.607 151.27 181.378 151.617 181.169ZM151.866 182.847C151.58 183.018 151.362 183.227 151.21 183.471C151.06 183.718 150.982 183.977 150.974 184.247C150.966 184.516 151.036 184.775 151.185 185.021L151.632 185.765C151.669 185.689 151.731 185.602 151.817 185.505C151.902 185.412 152.002 185.313 152.116 185.207C152.233 185.104 152.35 185.002 152.468 184.902C152.588 184.806 152.697 184.717 152.794 184.638C153.002 184.468 153.169 184.295 153.296 184.119C153.423 183.944 153.496 183.765 153.515 183.584C153.536 183.405 153.492 183.225 153.382 183.042C153.223 182.777 153.006 182.632 152.73 182.608C152.452 182.588 152.165 182.667 151.866 182.847Z" fill="#802E2E"/>
<path d="M142.624 192.631L144.444 191.62C144.552 191.765 144.69 191.876 144.857 191.954C145.026 192.035 145.215 192.072 145.424 192.067C145.633 192.066 145.855 192.008 146.092 191.895C146.409 191.743 146.645 191.548 146.798 191.31C146.953 191.074 146.978 190.846 146.872 190.625C146.788 190.448 146.647 190.333 146.447 190.279C146.248 190.224 145.96 190.242 145.582 190.333L144.117 190.702C143.329 190.898 142.68 190.916 142.172 190.758C141.663 190.6 141.282 190.254 141.027 189.723C140.796 189.239 140.736 188.746 140.846 188.245C140.954 187.744 141.205 187.274 141.601 186.833C141.994 186.397 142.512 186.026 143.152 185.72C144.13 185.252 145.005 185.084 145.78 185.214C146.553 185.348 147.157 185.744 147.593 186.401L145.63 187.47C145.427 187.201 145.171 187.044 144.862 186.998C144.554 186.956 144.218 187.023 143.853 187.197C143.494 187.369 143.239 187.575 143.087 187.817C142.933 188.064 142.907 188.299 143.01 188.521C143.102 188.706 143.253 188.82 143.463 188.865C143.675 188.914 143.957 188.893 144.308 188.804L145.708 188.448C146.498 188.247 147.154 188.241 147.676 188.428C148.196 188.617 148.587 188.987 148.85 189.538C149.077 190.012 149.144 190.482 149.052 190.947C148.956 191.414 148.719 191.852 148.34 192.261C147.957 192.672 147.451 193.029 146.82 193.33C145.887 193.776 145.059 193.93 144.336 193.791C143.609 193.654 143.039 193.268 142.624 192.631Z" fill="#802E2E"/>
<path d="M136.517 197.402L135.931 195.801L140.559 194.109L141.144 195.709L136.517 197.402ZM140.767 197.935L138.636 198.714L136.016 191.551C135.944 191.354 135.857 191.211 135.757 191.123C135.658 191.038 135.547 190.994 135.425 190.99C135.299 190.986 135.164 191.011 135.021 191.064C134.921 191.1 134.824 191.145 134.73 191.198C134.637 191.255 134.566 191.298 134.516 191.328L133.601 189.864C133.695 189.792 133.831 189.699 134.009 189.585C134.185 189.467 134.41 189.353 134.683 189.242C135.189 189.034 135.665 188.937 136.109 188.953C136.55 188.969 136.937 189.103 137.272 189.356C137.606 189.608 137.863 189.986 138.044 190.491L140.767 197.935Z" fill="#802E2E"/>
<path d="M118.459 201.651L118.187 199.968L123.172 199.162L123.444 200.845L118.459 201.651ZM120.998 192.952L122.397 201.613C122.492 202.199 122.457 202.703 122.291 203.125C122.122 203.548 121.853 203.888 121.485 204.146C121.116 204.403 120.678 204.573 120.17 204.655C119.826 204.71 119.508 204.735 119.216 204.728C118.92 204.722 118.698 204.709 118.551 204.69L118.679 202.943C118.771 202.957 118.884 202.965 119.018 202.969C119.148 202.973 119.279 202.964 119.413 202.943C119.742 202.889 119.959 202.775 120.064 202.6C120.169 202.428 120.2 202.206 120.156 201.932L118.763 193.314L120.998 192.952Z" fill="#802E2E"/>
<path d="M111.106 193.982C111.932 193.928 112.657 194.057 113.283 194.368C113.904 194.684 114.399 195.146 114.766 195.756C115.133 196.369 115.344 197.093 115.399 197.93C115.454 198.773 115.339 199.521 115.054 200.173C114.769 200.828 114.339 201.351 113.763 201.741C113.183 202.134 112.481 202.358 111.655 202.412C110.83 202.466 110.106 202.335 109.484 202.02C108.859 201.708 108.362 201.246 107.995 200.633C107.628 200.023 107.417 199.297 107.362 198.453C107.307 197.617 107.423 196.871 107.707 196.215C107.992 195.563 108.424 195.041 109.004 194.647C109.58 194.257 110.28 194.035 111.106 193.982ZM111.21 195.736C110.834 195.761 110.527 195.888 110.29 196.117C110.052 196.349 109.882 196.656 109.778 197.036C109.672 197.417 109.634 197.844 109.665 198.319C109.695 198.794 109.789 199.213 109.944 199.577C110.096 199.941 110.304 200.222 110.57 200.422C110.836 200.622 111.157 200.71 111.532 200.685C111.911 200.66 112.223 200.531 112.468 200.298C112.709 200.066 112.883 199.759 112.99 199.378C113.093 198.998 113.129 198.57 113.098 198.096C113.067 197.621 112.976 197.201 112.824 196.838C112.669 196.474 112.457 196.193 112.187 195.993C111.915 195.797 111.589 195.712 111.21 195.736Z" fill="#802E2E"/>
<path d="M102.653 194.129C103.48 194.154 104.19 194.351 104.783 194.721C105.372 195.094 105.82 195.601 106.128 196.243C106.435 196.888 106.576 197.63 106.551 198.467C106.526 199.312 106.34 200.045 105.994 200.667C105.649 201.293 105.171 201.772 104.56 202.106C103.946 202.442 103.225 202.598 102.398 202.573C101.571 202.548 100.863 202.349 100.274 201.976C99.6813 201.607 99.2312 201.099 98.9238 200.454C98.6163 199.812 98.4752 199.069 98.5007 198.224C98.526 197.387 98.7115 196.655 99.0572 196.03C99.4028 195.408 99.8827 194.928 100.497 194.592C101.107 194.258 101.826 194.104 102.653 194.129ZM102.589 195.886C102.213 195.874 101.896 195.971 101.637 196.177C101.379 196.386 101.18 196.675 101.041 197.043C100.898 197.412 100.82 197.834 100.806 198.31C100.791 198.786 100.844 199.212 100.964 199.588C101.081 199.965 101.262 200.265 101.507 200.489C101.753 200.713 102.064 200.831 102.44 200.843C102.82 200.854 103.142 200.755 103.408 200.547C103.67 200.338 103.873 200.049 104.015 199.68C104.154 199.312 104.231 198.889 104.245 198.414C104.259 197.938 104.208 197.512 104.092 197.135C103.972 196.759 103.787 196.458 103.538 196.234C103.285 196.013 102.969 195.897 102.589 195.886Z" fill="#802E2E"/>
<path d="M95.0645 193.605C95.681 193.683 96.2195 193.911 96.6798 194.292C97.1362 194.675 97.4716 195.195 97.6859 195.852C97.8962 196.512 97.9443 197.295 97.8302 198.2C97.713 199.13 97.4658 199.885 97.0886 200.464C96.711 201.046 96.2545 201.459 95.7191 201.703C95.1797 201.95 94.6123 202.036 94.0169 201.961C93.5624 201.904 93.1934 201.778 92.9099 201.585C92.6225 201.395 92.3998 201.174 92.242 200.921C92.0801 200.672 91.9636 200.432 91.8925 200.201L91.8238 200.192L91.311 204.261L89.065 203.978L90.4288 193.155L92.6485 193.435L92.4846 194.735L92.5798 194.747C92.7139 194.535 92.8918 194.33 93.1136 194.132C93.3313 193.938 93.6026 193.787 93.9273 193.682C94.2485 193.575 94.6276 193.55 95.0645 193.605ZM94.1252 195.307C93.7623 195.261 93.4434 195.321 93.1684 195.487C92.8894 195.655 92.6603 195.911 92.4811 196.254C92.2985 196.596 92.1767 197.008 92.1159 197.491C92.0551 197.973 92.0692 198.401 92.1582 198.774C92.2473 199.147 92.4064 199.446 92.6357 199.672C92.8649 199.897 93.161 200.033 93.5239 200.079C93.8938 200.125 94.2183 200.064 94.4973 199.895C94.7763 199.727 95.0034 199.472 95.1786 199.133C95.3538 198.794 95.4709 198.39 95.5299 197.921C95.5894 197.449 95.5768 197.023 95.4922 196.644C95.4036 196.268 95.2471 195.961 95.0227 195.726C94.7943 195.493 94.4952 195.353 94.1252 195.307Z" fill="#802E2E"/>
<path d="M78.3031 190.128L75.7624 197.905L73.6054 197.2L76.1461 189.423L78.3031 190.128ZM74.3514 198.554C74.672 198.658 74.9124 198.855 75.0725 199.142C75.2281 199.432 75.2568 199.727 75.1587 200.028C75.0616 200.325 74.8653 200.543 74.5696 200.681C74.2695 200.822 73.9591 200.841 73.6385 200.736C73.3178 200.631 73.0796 200.434 72.924 200.144C72.764 199.856 72.7325 199.564 72.8295 199.267C72.9276 198.966 73.1268 198.746 73.4269 198.605C73.7225 198.466 74.0307 198.449 74.3514 198.554Z" fill="#802E2E"/>
<path d="M69.2572 191.851L71.1468 187.515L73.227 188.421L69.9586 195.922L67.976 195.058L68.5526 193.735L68.4647 193.696C68.1086 194.06 67.6799 194.284 67.1786 194.368C66.6759 194.455 66.1462 194.377 65.5895 194.134C65.0686 193.907 64.6641 193.596 64.376 193.199C64.0879 192.802 63.9286 192.345 63.8982 191.829C63.8663 191.315 63.9774 190.767 64.2313 190.184L66.3124 185.408L68.3926 186.315L66.4733 190.719C66.27 191.177 66.2311 191.586 66.3567 191.947C66.4809 192.311 66.7513 192.584 67.168 192.765C67.448 192.887 67.7216 192.935 67.989 192.908C68.2531 192.88 68.4957 192.776 68.7169 192.598C68.9334 192.421 69.1135 192.172 69.2572 191.851Z" fill="#802E2E"/>
<path d="M57.2963 180.305L51.1245 189.3L49.2226 187.995L54.3186 180.568L50.4622 177.922L51.538 176.354L57.2963 180.305Z" fill="#802E2E"/>
<path d="M48.3341 173.474C48.9688 174.004 49.4049 174.598 49.6424 175.255C49.875 175.913 49.9137 176.589 49.7588 177.283C49.6016 177.98 49.2541 178.65 48.7165 179.293C48.1742 179.941 47.575 180.403 46.9189 180.679C46.2605 180.956 45.5883 181.038 44.9024 180.922C44.2115 180.808 43.5487 180.485 42.914 179.954C42.2794 179.423 41.8458 178.829 41.6133 178.171C41.3757 177.514 41.3356 176.837 41.4928 176.14C41.6477 175.446 41.9963 174.774 42.5386 174.126C43.0762 173.483 43.6743 173.023 44.3327 172.745C44.9888 172.469 45.6624 172.389 46.3533 172.504C47.0392 172.62 47.6995 172.943 48.3341 173.474ZM47.1982 174.815C46.9095 174.574 46.6 174.454 46.2699 174.455C45.9376 174.46 45.6027 174.564 45.2655 174.768C44.9254 174.97 44.6028 175.253 44.2975 175.618C43.9922 175.983 43.7703 176.351 43.6319 176.721C43.4908 177.089 43.4474 177.437 43.5018 177.765C43.5562 178.093 43.7278 178.378 44.0165 178.619C44.308 178.863 44.6227 178.985 44.9605 178.985C45.2956 178.983 45.6331 178.881 45.9731 178.679C46.3104 178.475 46.6317 178.191 46.937 177.826C47.2423 177.461 47.4655 177.094 47.6067 176.726C47.7451 176.356 47.7858 176.006 47.7286 175.675C47.6665 175.346 47.4897 175.059 47.1982 174.815Z" fill="#802E2E"/>
<path d="M35.0294 169.123L36.58 170.511C36.4786 170.661 36.4185 170.828 36.3998 171.011C36.3785 171.197 36.4049 171.388 36.479 171.584C36.5481 171.78 36.6749 171.972 36.8596 172.159C37.1066 172.409 37.368 172.568 37.6438 172.635C37.917 172.704 38.1409 172.653 38.3152 172.481C38.4542 172.344 38.5168 172.172 38.503 171.966C38.4893 171.76 38.378 171.493 38.1691 171.165L37.341 169.902C36.8983 169.221 36.6686 168.615 36.6519 168.082C36.6352 167.55 36.8366 167.076 37.2561 166.662C37.6376 166.286 38.0835 166.067 38.5936 166.008C39.1012 165.946 39.628 166.029 40.174 166.259C40.7149 166.488 41.2349 166.856 41.7339 167.361C42.4949 168.132 42.9407 168.904 43.0714 169.679C43.1971 170.453 43.0206 171.154 42.542 171.781L40.8905 170.275C41.0781 169.995 41.1428 169.702 41.0844 169.395C41.0236 169.091 40.851 168.794 40.5665 168.506C40.2871 168.223 40.0082 168.05 39.7299 167.985C39.4465 167.92 39.2164 167.973 39.0396 168.143C38.8955 168.29 38.8366 168.47 38.8629 168.684C38.8866 168.9 38.998 169.159 39.1969 169.462L39.9916 170.668C40.4392 171.349 40.6601 171.967 40.654 172.522C40.6455 173.075 40.4239 173.565 39.9893 173.994C39.6153 174.364 39.1933 174.581 38.7233 174.646C38.2509 174.708 37.7592 174.627 37.2484 174.403C36.735 174.176 36.2326 173.814 35.7411 173.316C35.015 172.58 34.5991 171.848 34.4932 171.119C34.3848 170.388 34.5636 169.723 35.0294 169.123Z" fill="#802E2E"/>
<path d="M23.7659 157.438C23.4322 157.712 23.2561 158.049 23.2377 158.45C23.2192 158.851 23.3638 159.282 23.6714 159.742C23.8804 160.055 24.1012 160.29 24.3337 160.447C24.5633 160.605 24.7933 160.691 25.0238 160.703C25.2523 160.713 25.464 160.653 25.659 160.523C25.8253 160.42 25.9444 160.291 26.0162 160.137C26.0861 159.979 26.1209 159.804 26.1208 159.612C26.1177 159.422 26.0905 159.218 26.0391 159.001C25.9848 158.785 25.9138 158.563 25.826 158.336L25.4767 157.391C25.3011 156.936 25.1767 156.494 25.1035 156.064C25.0304 155.635 25.0207 155.227 25.0747 154.841C25.1286 154.455 25.2574 154.098 25.461 153.77C25.6627 153.439 25.9516 153.145 26.3277 152.89C26.8849 152.522 27.461 152.343 28.0558 152.351C28.6458 152.359 29.2285 152.55 29.8039 152.926C30.3744 153.301 30.9062 153.858 31.3991 154.596C31.8881 155.329 32.2017 156.041 32.3401 156.735C32.4765 157.425 32.4261 158.069 32.1892 158.667C31.9473 159.264 31.5049 159.788 30.862 160.239L29.6228 158.382C29.9132 158.159 30.109 157.902 30.2103 157.612C30.3066 157.322 30.3197 157.012 30.2496 156.683C30.1745 156.353 30.0266 156.023 29.8057 155.692C29.5888 155.367 29.3533 155.117 29.0991 154.94C28.8429 154.761 28.5862 154.662 28.3292 154.641C28.0721 154.62 27.8343 154.683 27.6157 154.829C27.4119 154.965 27.2811 155.14 27.2231 155.354C27.1631 155.565 27.1613 155.818 27.2177 156.113C27.272 156.406 27.3698 156.744 27.5108 157.128L27.9223 158.281C28.2469 159.171 28.3592 159.969 28.2592 160.676C28.1592 161.383 27.773 161.959 27.1006 162.404C26.5532 162.774 25.9757 162.948 25.368 162.926C24.7583 162.902 24.1648 162.707 23.5874 162.341C23.01 161.975 22.5005 161.461 22.0588 160.8C21.6093 160.126 21.3321 159.462 21.2272 158.806C21.1204 158.147 21.1786 157.54 21.4019 156.986C21.6251 156.431 22.004 155.969 22.5385 155.599L23.7659 157.438Z" fill="#802E2E"/>
<path d="M27.3768 147.952C27.6241 148.411 27.7647 148.864 27.7986 149.309C27.8294 149.756 27.7432 150.17 27.5401 150.549C27.3321 150.927 26.9904 151.244 26.515 151.5C26.1147 151.715 25.739 151.822 25.3878 151.822C25.0367 151.821 24.7101 151.739 24.4081 151.574C24.1061 151.41 23.8262 151.19 23.5685 150.913C23.3091 150.633 23.0664 150.324 22.8402 149.986C22.571 149.591 22.3487 149.275 22.1733 149.039C21.9947 148.804 21.8352 148.65 21.6947 148.576C21.5543 148.502 21.4075 148.507 21.2542 148.589L21.2261 148.604C20.929 148.764 20.7496 148.982 20.6879 149.257C20.6245 149.529 20.6845 149.835 20.8678 150.176C21.0612 150.536 21.2949 150.779 21.5688 150.906C21.8395 151.035 22.1123 151.069 22.387 151.01L23.2309 152.939C22.7426 153.081 22.265 153.1 21.7979 152.996C21.3278 152.894 20.8898 152.672 20.484 152.33C20.0733 151.986 19.7133 151.527 19.4038 150.951C19.1885 150.551 19.0293 150.143 18.9264 149.726C18.8217 149.307 18.7914 148.902 18.8353 148.511C18.8776 148.118 19.009 147.755 19.2294 147.422C19.4468 147.092 19.7697 146.811 20.1982 146.581L25.0583 143.967L26.0776 145.862L25.0784 146.399L25.1087 146.456C25.3961 146.45 25.6779 146.498 25.9542 146.6C26.2274 146.703 26.4857 146.864 26.7289 147.084C26.9691 147.306 27.1851 147.595 27.3768 147.952ZM25.6898 148.121C25.5317 147.827 25.3342 147.599 25.0974 147.436C24.8574 147.274 24.6029 147.183 24.3338 147.163C24.0646 147.142 23.8034 147.2 23.5501 147.336L22.7854 147.748C22.8597 147.788 22.9435 147.854 23.0368 147.945C23.1252 148.035 23.2197 148.139 23.3202 148.258C23.4175 148.379 23.5133 148.501 23.6075 148.624C23.6986 148.748 23.7814 148.861 23.8559 148.962C24.0165 149.178 24.1814 149.354 24.3507 149.488C24.5199 149.623 24.6947 149.705 24.8751 149.733C25.0523 149.762 25.2348 149.727 25.4224 149.626C25.6945 149.479 25.8495 149.269 25.8874 148.995C25.9205 148.719 25.8546 148.428 25.6898 148.121Z" fill="#802E2E"/>
<path d="M19.5168 143.053L23.8768 141.218L24.7568 143.31L17.2153 146.483L16.3766 144.489L17.7072 143.93L17.67 143.841C17.1611 143.859 16.6964 143.725 16.2758 143.44C15.852 143.156 15.5223 142.734 15.2868 142.174C15.0665 141.65 14.9889 141.146 15.0542 140.66C15.1194 140.174 15.3194 139.733 15.654 139.338C15.9853 138.944 16.444 138.624 17.0299 138.378L21.8317 136.358L22.7117 138.449L18.283 140.312C17.8201 140.503 17.5097 140.773 17.3516 141.12C17.1903 141.47 17.1978 141.854 17.374 142.273C17.4925 142.554 17.6577 142.777 17.8697 142.942C18.0803 143.104 18.3273 143.197 18.6107 143.22C18.8894 143.242 19.1914 143.186 19.5168 143.053Z" fill="#802E2E"/>
<path d="M11.8812 132.096L13.508 131.587L14.9785 136.29L13.3516 136.799L11.8812 132.096ZM11.1469 136.316L10.4697 134.15L17.7499 131.874C17.9499 131.811 18.0963 131.732 18.189 131.636C18.2784 131.541 18.3282 131.433 18.3383 131.31C18.3474 131.185 18.3292 131.049 18.2836 130.903C18.2518 130.802 18.2115 130.703 18.1628 130.606C18.1107 130.511 18.071 130.438 18.0439 130.387L19.549 129.542C19.6168 129.64 19.7035 129.78 19.809 129.963C19.918 130.145 20.0215 130.375 20.1196 130.653C20.3032 131.168 20.3767 131.648 20.3404 132.091C20.303 132.53 20.1504 132.911 19.8827 133.233C19.615 133.555 19.2247 133.794 18.7118 133.951L11.1469 136.316Z" fill="#802E2E"/>
<path d="M18.4049 123.66C18.5756 124.469 18.5513 125.206 18.3319 125.869C18.1083 126.529 17.7209 127.085 17.1698 127.535C16.6153 127.986 15.928 128.298 15.108 128.47C14.281 128.645 13.5245 128.637 12.8386 128.448C12.1492 128.26 11.5706 127.908 11.1028 127.393C10.6307 126.876 10.3093 126.213 10.1386 125.403C9.96784 124.593 9.99428 123.858 10.2179 123.198C10.4373 122.535 10.8243 121.977 11.3789 121.527C11.9299 121.077 12.619 120.764 13.4459 120.59C14.266 120.417 15.0207 120.425 15.7101 120.613C16.396 120.802 16.975 121.156 17.447 121.673C17.9149 122.188 18.2342 122.85 18.4049 123.66ZM16.6827 124.012C16.605 123.644 16.4359 123.358 16.1754 123.155C15.9115 122.953 15.5838 122.828 15.1926 122.78C14.8007 122.728 14.3719 122.752 13.9063 122.85C13.4407 122.948 13.039 123.1 12.7013 123.306C12.3628 123.508 12.1136 123.754 11.9537 124.046C11.7937 124.337 11.7526 124.667 11.8303 125.035C11.9087 125.407 12.0806 125.697 12.3461 125.906C12.6108 126.112 12.9392 126.24 13.3311 126.292C13.7223 126.34 14.1508 126.315 14.6164 126.217C15.082 126.119 15.484 125.969 15.8225 125.767C16.1602 125.561 16.4087 125.311 16.5679 125.016C16.7228 124.718 16.7611 124.384 16.6827 124.012Z" fill="#802E2E"/>
<path d="M10.6361 112.015L10.9967 114.065C10.8243 114.12 10.6741 114.214 10.5461 114.347C10.4146 114.479 10.3173 114.646 10.2541 114.846C10.1871 115.043 10.1683 115.272 10.1979 115.533C10.2374 115.883 10.3448 116.169 10.5202 116.392C10.692 116.616 10.8996 116.714 11.1431 116.686C11.3372 116.664 11.4925 116.568 11.609 116.397C11.7255 116.227 11.803 115.948 11.8415 115.562L11.9714 114.057C12.0443 113.248 12.2387 112.629 12.5548 112.2C12.8708 111.771 13.3216 111.524 13.9074 111.458C14.4402 111.397 14.9255 111.501 15.3633 111.77C15.8007 112.035 16.1631 112.426 16.4504 112.944C16.7338 113.459 16.9154 114.069 16.9952 114.775C17.117 115.851 16.9899 116.734 16.614 117.423C16.2342 118.11 15.6623 118.551 14.8984 118.749L14.5311 116.544C14.8517 116.44 15.0838 116.249 15.2276 115.972C15.3678 115.695 15.4152 115.356 15.3697 114.953C15.325 114.558 15.2132 114.249 15.0343 114.027C14.8515 113.801 14.6381 113.7 14.3943 113.724C14.19 113.75 14.0322 113.856 13.9208 114.04C13.8059 114.224 13.7331 114.497 13.7024 114.858L13.5812 116.298C13.5122 117.11 13.3038 117.732 12.9561 118.164C12.6079 118.593 12.1304 118.842 11.5234 118.911C11.0012 118.97 10.5353 118.879 10.1258 118.64C9.71593 118.397 9.37951 118.029 9.11657 117.537C8.85323 117.042 8.68223 116.446 8.60359 115.751C8.48742 114.724 8.61302 113.892 8.98037 113.253C9.34733 112.611 9.89925 112.199 10.6361 112.015Z" fill="#802E2E"/>
</svg>
