<svg width="200" height="1535" viewBox="0 0 200 1535" fill="none" xmlns="http://www.w3.org/2000/svg">
<path d="M32.9033 246V61.2727H166.037V101.682H83.0539V133.432H159.182V173.841H83.0539V205.591H165.676V246H32.9033ZM27.0742 860V675.273H106.81C120.52 675.273 132.517 677.768 142.799 682.759C153.082 687.75 161.08 694.936 166.792 704.317C172.505 713.697 175.361 724.942 175.361 738.051C175.361 751.28 172.415 762.435 166.522 771.515C160.689 780.595 152.481 787.45 141.897 792.08C131.374 796.71 119.077 799.026 105.006 799.026H57.381V760.06H94.9038C100.797 760.06 105.818 759.338 109.967 757.895C114.176 756.392 117.393 754.016 119.618 750.769C121.903 747.522 123.046 743.283 123.046 738.051C123.046 732.759 121.903 728.46 119.618 725.153C117.393 721.785 114.176 719.32 109.967 717.756C105.818 716.133 100.797 715.321 94.9038 715.321H77.2248V860H27.0742ZM135.313 775.213L181.495 860H127.015L81.9151 775.213H135.313ZM16.6562 1167V982.273H66.8068V1054.43H133.193V982.273H183.344V1167H133.193V1094.84H66.8068V1167H16.6562Z" fill="#802E2E"/>
</svg>
