<svg width="200" height="1535" viewBox="0 0 200 1535" fill="none" xmlns="http://www.w3.org/2000/svg">
<path d="M27.0742 246V61.2727H106.81C120.52 61.2727 132.517 63.7682 142.799 68.7592C153.082 73.7502 161.08 80.9361 166.792 90.3168C172.505 99.6974 175.361 110.942 175.361 124.051C175.361 137.28 172.415 148.435 166.522 157.515C160.689 166.595 152.481 173.45 141.897 178.08C131.374 182.71 119.077 185.026 105.006 185.026H57.381V146.06H94.9038C100.797 146.06 105.818 145.338 109.967 143.895C114.176 142.392 117.393 140.016 119.618 136.769C121.903 133.522 123.046 129.283 123.046 124.051C123.046 118.759 121.903 114.46 119.618 111.153C117.393 107.785 114.176 105.32 109.967 103.756C105.818 102.133 100.797 101.321 94.9038 101.321H77.2248V246H27.0742ZM135.313 161.213L181.495 246H127.015L81.9151 161.213H135.313ZM189.782 460.636C189.782 481.202 185.783 498.55 177.785 512.681C169.788 526.752 158.994 537.426 145.404 544.702C131.814 551.918 116.66 555.526 99.9436 555.526C83.1065 555.526 67.893 551.888 54.303 544.612C40.7732 537.275 30.0094 526.572 22.0118 512.501C14.0743 498.37 10.1056 481.081 10.1056 460.636C10.1056 440.071 14.0743 422.753 22.0118 408.682C30.0094 394.551 40.7732 383.877 54.303 376.661C67.893 369.385 83.1065 365.747 99.9436 365.747C116.66 365.747 131.814 369.385 145.404 376.661C158.994 383.877 169.788 394.551 177.785 408.682C185.783 422.753 189.782 440.071 189.782 460.636ZM138.188 460.636C138.188 449.572 136.715 440.251 133.768 432.675C130.882 425.038 126.582 419.265 120.87 415.357C115.217 411.388 108.242 409.403 99.9436 409.403C91.6453 409.403 84.6399 411.388 78.9273 415.357C73.2748 419.265 68.9754 425.038 66.0289 432.675C63.1425 440.251 61.6993 449.572 61.6993 460.636C61.6993 471.701 63.1425 481.051 66.0289 488.688C68.9754 496.265 73.2748 502.038 78.9273 506.006C84.6399 509.915 91.6453 511.869 99.9436 511.869C108.242 511.869 115.217 509.915 120.87 506.006C126.582 502.038 130.882 496.265 133.768 488.688C136.715 481.051 138.188 471.701 138.188 460.636ZM32.9033 860V675.273H166.037V715.682H83.0539V747.432H159.182V787.841H83.0539V819.591H165.676V860H32.9033ZM129.574 982.273H179.725V1100.61C179.725 1114.68 176.357 1126.86 169.622 1137.14C162.948 1147.37 153.627 1155.27 141.661 1160.87C129.694 1166.4 115.804 1169.16 99.9887 1169.16C84.0536 1169.16 70.1028 1166.4 58.1365 1160.87C46.1701 1155.27 36.8495 1147.37 30.1748 1137.14C23.5602 1126.86 20.2529 1114.68 20.2529 1100.61V982.273H70.4035V1096.28C70.4035 1102 71.6663 1107.11 74.1919 1111.62C76.7174 1116.07 80.2051 1119.56 84.6549 1122.08C89.1649 1124.61 94.2761 1125.87 99.9887 1125.87C105.761 1125.87 110.873 1124.61 115.323 1122.08C119.772 1119.56 123.26 1116.07 125.786 1111.62C128.311 1107.11 129.574 1102 129.574 1096.28V982.273ZM27.0742 1474V1289.27H106.81C120.52 1289.27 132.517 1291.77 142.799 1296.76C153.082 1301.75 161.08 1308.94 166.792 1318.32C172.505 1327.7 175.361 1338.94 175.361 1352.05C175.361 1365.28 172.415 1376.43 166.522 1385.51C160.689 1394.59 152.481 1401.45 141.897 1406.08C131.374 1410.71 119.077 1413.03 105.006 1413.03H57.381V1374.06H94.9038C100.797 1374.06 105.818 1373.34 109.967 1371.89C114.176 1370.39 117.393 1368.02 119.618 1364.77C121.903 1361.52 123.046 1357.28 123.046 1352.05C123.046 1346.76 121.903 1342.46 119.618 1339.15C117.393 1335.79 114.176 1333.32 109.967 1331.76C105.818 1330.13 100.797 1329.32 94.9038 1329.32H77.2248V1474H27.0742ZM135.313 1389.21L181.495 1474H127.015L81.9151 1389.21H135.313Z" fill="#802E2E"/>
</svg>
